<?xml version="1.0" encoding="UTF-8" standalone="no"?>
<svg
   xmlns:dc="http://purl.org/dc/elements/1.1/"
   xmlns:cc="http://creativecommons.org/ns#"
   xmlns:rdf="http://www.w3.org/1999/02/22-rdf-syntax-ns#"
   xmlns:svg="http://www.w3.org/2000/svg"
   xmlns="http://www.w3.org/2000/svg"
   id="svg47"
   xml:space="preserve"
   viewBox="0 0 1024 768"
   y="0px"
   x="0px"
   version="1.1"><metadata
     id="metadata53"><rdf:RDF><cc:Work
         rdf:about=""><dc:format>image/svg+xml</dc:format><dc:type
           rdf:resource="http://purl.org/dc/dcmitype/StillImage" /></cc:Work></rdf:RDF></metadata><defs
     id="defs51" /><g
     style="stroke-width:0;stroke-miterlimit:2"
     transform="translate(-5e-6)"
     stroke-miterlimit="2"
     id="logo-group"><path
       d="m 218.58,432.26 q 2.8576,0 4.8944,1.4288 2.0672,1.3984 3.1312,3.8304 1.0944,2.4016 1.0944,5.3808 0,2.9792 -1.0944,5.4112 -1.064,2.4016 -3.1312,3.8304 -2.0368,1.3984 -4.8944,1.3984 h -7.2656 q -0.7904,0 -1.3376,-0.5168 -0.5168,-0.5472 -0.5168,-1.3376 v -17.571 q 0,-0.7904 0.5168,-1.3072 0.5472,-0.5472 1.3376,-0.5472 z m -0.304,17.784 q 2.736,0 4.104,-2.0064 1.368,-2.0368 1.368,-5.1376 0,-3.1008 -1.3984,-5.1072 -1.368,-2.0368 -4.0736,-2.0368 h -5.016 v 14.288 z"
       style="font-variant-ligatures:none;fill:#624bfd"
       id="path369889" /><path
       d="m 234.32,451.68 q 0,0.7904 -0.5168,1.3376 -0.5168,0.5168 -1.3072,0.5168 -0.7904,0 -1.3072,-0.5168 -0.5168,-0.5472 -0.5168,-1.3376 v -12.555 q 0,-0.7904 0.5168,-1.3072 0.5168,-0.5472 1.3072,-0.5472 0.7904,0 1.3072,0.5472 0.5168,0.5168 0.5168,1.3072 z m -1.8544,-16.386 q -1.0336,0 -1.4592,-0.3344 -0.4256,-0.3344 -0.4256,-1.1856 v -0.5776 q 0,-0.8512 0.456,-1.1856 0.456,-0.3344 1.4592,-0.3344 1.064,0 1.4896,0.3344 0.4256,0.3344 0.4256,1.1856 v 0.5776 q 0,0.8816 -0.456,1.216 -0.4256,0.304 -1.4896,0.304 z"
       style="font-variant-ligatures:none;fill:#624bfd"
       id="path369891" /><path
       d="m 251.53,436.97 q 0.7904,0 1.3072,0.5168 0.5168,0.5168 0.5168,1.3376 v 13.528 q 0,3.7088 -2.3104,5.472 -2.28,1.7936 -5.8064,1.7936 -0.912,0 -2.5232,-0.304 -1.5808,-0.304 -2.2496,-0.608 -1.4896,-0.6384 -1.4896,-1.7632 0,-0.2128 0.0912,-0.4864 0.1824,-0.6688 0.608,-1.0336 0.456,-0.3344 0.9728,-0.3344 0.304,0 0.5776,0.0912 0.1216,0.0304 1.4896,0.5472 1.3984,0.5472 2.5232,0.5472 2.2496,0 3.344,-0.912 1.1248,-0.8816 1.1248,-2.5232 v -1.4592 q -0.6688,0.9424 -2.0368,1.7024 -1.3376,0.76 -2.888,0.76 -2.128,0 -3.8912,-1.064 -1.7328,-1.0944 -2.736,-3.0096 -1.0032,-1.9152 -1.0032,-4.3472 0,-2.432 0.9728,-4.3472 1.0032,-1.9456 2.7056,-3.0096 1.7328,-1.0944 3.8304,-1.0944 1.5504,0 2.888,0.6384 1.3376,0.6384 2.1584,1.5504 v -0.3344 q 0,-0.7904 0.5168,-1.3072 0.5168,-0.5472 1.3072,-0.5472 z m -6.2928,13.528 q 2.0368,0 3.3136,-1.4288 1.3072,-1.4592 1.3072,-3.648 0,-2.1888 -1.3072,-3.648 -1.2768,-1.4592 -3.3136,-1.4592 -2.0368,0 -3.3136,1.4592 -1.2768,1.4592 -1.2768,3.648 0,2.1888 1.2768,3.648 1.2768,1.4288 3.3136,1.4288 z"
       style="font-variant-ligatures:none;fill:#624bfd"
       id="path369893" /><path
       d="m 260.74,451.68 q 0,0.7904 -0.5168,1.3376 -0.5168,0.5168 -1.3072,0.5168 -0.7904,0 -1.3072,-0.5168 -0.5168,-0.5472 -0.5168,-1.3376 v -12.555 q 0,-0.7904 0.5168,-1.3072 0.5168,-0.5472 1.3072,-0.5472 0.7904,0 1.3072,0.5472 0.5168,0.5168 0.5168,1.3072 z m -1.8544,-16.386 q -1.0336,0 -1.4592,-0.3344 -0.4256,-0.3344 -0.4256,-1.1856 v -0.5776 q 0,-0.8512 0.456,-1.1856 0.456,-0.3344 1.4592,-0.3344 1.064,0 1.4896,0.3344 0.4256,0.3344 0.4256,1.1856 v 0.5776 q 0,0.8816 -0.456,1.216 -0.4256,0.304 -1.4896,0.304 z"
       style="font-variant-ligatures:none;fill:#624bfd"
       id="path369895" /><path
       d="m 272.33,450.1 q 0.4256,0 0.76,0.4256 0.3648,0.3952 0.3648,1.064 0,0.8208 -0.912,1.3984 -0.8816,0.5472 -2.0064,0.5472 -1.8848,0 -3.192,-0.7904 -1.2768,-0.8208 -1.2768,-3.4352 v -8.3904 h -1.3984 q -0.7296,0 -1.216,-0.4864 -0.4864,-0.4864 -0.4864,-1.216 0,-0.6992 0.4864,-1.1552 0.4864,-0.4864 1.216,-0.4864 h 1.3984 v -1.9456 q 0,-0.7904 0.5168,-1.3072 0.5472,-0.5472 1.3376,-0.5472 0.76,0 1.2768,0.5472 0.5168,0.5168 0.5168,1.3072 v 1.9456 h 2.1584 q 0.7296,0 1.216,0.4864 0.4864,0.4864 0.4864,1.216 0,0.6992 -0.4864,1.1856 -0.4864,0.456 -1.216,0.456 h -2.1584 v 8.2384 q 0,0.6384 0.3344,0.9424 0.3344,0.2736 0.912,0.2736 0.2432,0 0.6688,-0.1216 0.3648,-0.152 0.6992,-0.152 z"
       style="font-variant-ligatures:none;fill:#624bfd"
       id="path369897" /><path
       d="m 280.33,451.68 q 0,0.7904 -0.5168,1.3376 -0.5168,0.5168 -1.3072,0.5168 -0.7904,0 -1.3072,-0.5168 -0.5168,-0.5472 -0.5168,-1.3376 v -12.555 q 0,-0.7904 0.5168,-1.3072 0.5168,-0.5472 1.3072,-0.5472 0.7904,0 1.3072,0.5472 0.5168,0.5168 0.5168,1.3072 z m -1.8544,-16.386 q -1.0336,0 -1.4592,-0.3344 -0.4256,-0.3344 -0.4256,-1.1856 v -0.5776 q 0,-0.8512 0.456,-1.1856 0.456,-0.3344 1.4592,-0.3344 1.064,0 1.4896,0.3344 0.4256,0.3344 0.4256,1.1856 v 0.5776 q 0,0.8816 -0.456,1.216 -0.4256,0.304 -1.4896,0.304 z"
       style="font-variant-ligatures:none;fill:#624bfd"
       id="path369899" /><path
       d="m 294.45,450.19 q 0.7296,0 1.216,0.4864 0.4864,0.456 0.4864,1.1856 0,0.6992 -0.4864,1.1856 -0.4864,0.4864 -1.216,0.4864 h -9.7888 q -0.6992,0 -1.1856,-0.4864 -0.456,-0.5168 -0.456,-1.0944 0,-0.5168 0.1216,-0.8512 0.1216,-0.3648 0.456,-0.8208 l 7.2352,-9.3632 h -5.8976 q -0.7296,0 -1.216,-0.4864 -0.4864,-0.4864 -0.4864,-1.216 0,-0.6992 0.4864,-1.1552 0.4864,-0.4864 1.216,-0.4864 h 9.3632 q 0.6688,0 1.1248,0.4864 0.4864,0.456 0.4864,1.1552 0,0.456 -0.0912,0.7904 -0.0912,0.304 -0.4256,0.7296 l -7.296,9.4544 z"
       style="font-variant-ligatures:none;fill:#624bfd"
       id="path369901" /><path
       d="m 311.97,436.97 q 0.7904,0 1.3072,0.5168 0.5168,0.5168 0.5168,1.3376 v 12.859 q 0,0.7904 -0.5168,1.3376 -0.5168,0.5168 -1.3072,0.5168 -0.7904,0 -1.3072,-0.5168 -0.4864,-0.5168 -0.5168,-1.3072 -0.76,0.8816 -2.0672,1.52 -1.2768,0.608 -2.7056,0.608 -2.0976,0 -3.8,-1.064 -1.7024,-1.0944 -2.7056,-3.0096 -0.9728,-1.9152 -0.9728,-4.3472 0,-2.432 0.9728,-4.3472 0.9728,-1.9456 2.6448,-3.0096 1.7024,-1.0944 3.7392,-1.0944 1.4592,0 2.736,0.5472 1.2768,0.5168 2.1584,1.3376 v -0.0304 q 0,-0.7904 0.5168,-1.3072 0.5168,-0.5472 1.3072,-0.5472 z m -6.1408,13.528 q 1.976,0 3.2224,-1.4288 1.2464,-1.4592 1.2464,-3.648 0,-2.1888 -1.2464,-3.648 -1.2464,-1.4592 -3.2224,-1.4592 -1.9456,0 -3.192,1.4592 -1.2464,1.4592 -1.2464,3.648 0,2.1888 1.216,3.648 1.2464,1.4288 3.2224,1.4288 z"
       style="font-variant-ligatures:none;fill:#624bfd"
       id="path369903" /><path
       d="m 325.59,450.1 q 0.4256,0 0.76,0.4256 0.3648,0.3952 0.3648,1.064 0,0.8208 -0.912,1.3984 -0.8816,0.5472 -2.0064,0.5472 -1.8848,0 -3.192,-0.7904 -1.2768,-0.8208 -1.2768,-3.4352 v -8.3904 h -1.3984 q -0.7296,0 -1.216,-0.4864 -0.4864,-0.4864 -0.4864,-1.216 0,-0.6992 0.4864,-1.1552 0.4864,-0.4864 1.216,-0.4864 h 1.3984 v -1.9456 q 0,-0.7904 0.5168,-1.3072 0.5472,-0.5472 1.3376,-0.5472 0.76,0 1.2768,0.5472 0.5168,0.5168 0.5168,1.3072 v 1.9456 h 2.1584 q 0.7296,0 1.216,0.4864 0.4864,0.4864 0.4864,1.216 0,0.6992 -0.4864,1.1856 -0.4864,0.456 -1.216,0.456 h -2.1584 v 8.2384 q 0,0.6384 0.3344,0.9424 0.3344,0.2736 0.912,0.2736 0.2432,0 0.6688,-0.1216 0.3648,-0.152 0.6992,-0.152 z"
       style="font-variant-ligatures:none;fill:#624bfd"
       id="path369905" /><path
       d="m 333.59,451.68 q 0,0.7904 -0.5168,1.3376 -0.5168,0.5168 -1.3072,0.5168 -0.7904,0 -1.3072,-0.5168 -0.5168,-0.5472 -0.5168,-1.3376 v -12.555 q 0,-0.7904 0.5168,-1.3072 0.5168,-0.5472 1.3072,-0.5472 0.7904,0 1.3072,0.5472 0.5168,0.5168 0.5168,1.3072 z m -1.8544,-16.386 q -1.0336,0 -1.4592,-0.3344 -0.4256,-0.3344 -0.4256,-1.1856 v -0.5776 q 0,-0.8512 0.456,-1.1856 0.456,-0.3344 1.4592,-0.3344 1.064,0 1.4896,0.3344 0.4256,0.3344 0.4256,1.1856 v 0.5776 q 0,0.8816 -0.456,1.216 -0.4256,0.304 -1.4896,0.304 z"
       style="font-variant-ligatures:none;fill:#624bfd"
       id="path369907" /><path
       d="m 352.97,445.42 q 0,2.432 -1.0944,4.3776 -1.0944,1.9152 -3.0096,2.9792 -1.8848,1.064 -4.1648,1.064 -2.3104,0 -4.1952,-1.064 -1.8848,-1.064 -2.9792,-2.9792 -1.0944,-1.9456 -1.0944,-4.3776 0,-2.432 1.0944,-4.3472 1.0944,-1.9456 2.9792,-3.0096 1.8848,-1.0944 4.1952,-1.0944 2.28,0 4.1648,1.0944 1.9152,1.064 3.0096,3.0096 1.0944,1.9152 1.0944,4.3472 z m -3.648,0 q 0,-1.4896 -0.6384,-2.6448 -0.608,-1.1856 -1.672,-1.824 -1.0336,-0.6384 -2.3104,-0.6384 -1.2768,0 -2.3408,0.6384 -1.0336,0.6384 -1.672,1.824 -0.608,1.1552 -0.608,2.6448 0,1.4896 0.608,2.6448 0.6384,1.1552 1.672,1.7936 1.064,0.6384 2.3408,0.6384 1.2768,0 2.3104,-0.6384 1.064,-0.6384 1.672,-1.7936 0.6384,-1.1552 0.6384,-2.6448 z"
       style="font-variant-ligatures:none;fill:#624bfd"
       id="path369909" /><path
       d="m 364.68,436.97 q 3.1008,0 4.2864,1.8544 1.1856,1.824 1.1856,5.0768 v 7.7824 q 0,0.7904 -0.5168,1.3376 -0.5168,0.5168 -1.3072,0.5168 -0.7904,0 -1.3072,-0.5168 -0.5168,-0.5472 -0.5168,-1.3376 v -7.7824 q 0,-1.672 -0.6992,-2.6144 -0.6992,-0.9728 -2.4016,-0.9728 -1.7632,0 -2.7664,1.0336 -1.0032,1.0032 -1.0032,2.5536 v 7.7824 q 0,0.7904 -0.5168,1.3376 -0.5168,0.5168 -1.3072,0.5168 -0.7904,0 -1.3072,-0.5168 -0.5168,-0.5472 -0.5168,-1.3376 v -12.555 q 0,-0.7904 0.5168,-1.3072 0.5168,-0.5472 1.3072,-0.5472 0.7904,0 1.3072,0.5472 0.5168,0.5168 0.5168,1.3072 v 0.5168 q 0.8208,-1.0944 2.128,-1.8848 1.3376,-0.7904 2.9184,-0.7904 z"
       style="font-variant-ligatures:none;fill:#624bfd"
       id="path369911" /><path
       d="m 386.2,455.48 q 0,0.7904 -0.5472,1.3072 -0.5168,0.5472 -1.3072,0.5472 -0.76,0 -1.2768,-0.5472 -0.5168,-0.5168 -0.5168,-1.3072 v -24.442 q 0,-0.7904 0.5168,-1.3072 0.5472,-0.5472 1.3376,-0.5472 0.76,0 1.2768,0.5472 0.5168,0.5168 0.5168,1.3072 z"
       style="font-variant-ligatures:none;fill:#624bfd"
       id="path369913" /><path
       d="m 413.82,433.29 q 0.9424,0.4864 0.9424,1.5504 0,0.6384 -0.456,1.2464 -0.4864,0.6384 -1.2464,0.6384 -0.5168,0 -1.0336,-0.2736 -1.4896,-0.6992 -3.2224,-0.6992 -2.128,0 -3.7088,0.912 -1.5808,0.8816 -2.432,2.5232 -0.8512,1.6112 -0.8512,3.7088 0,3.5872 1.9152,5.4416 1.9456,1.8544 5.0768,1.8544 1.8544,0 3.2224,-0.6992 0.5472,-0.2432 0.9728,-0.2432 0.7904,0 1.3376,0.6688 0.456,0.5776 0.456,1.2464 0,0.4864 -0.2432,0.8816 -0.2432,0.3952 -0.6992,0.608 -2.3712,1.1856 -5.0464,1.1856 -2.9792,0 -5.472,-1.2464 -2.4928,-1.2768 -3.9824,-3.7392 -1.4896,-2.4624 -1.4896,-5.9584 0,-3.1008 1.3984,-5.5632 1.4288,-2.4624 3.9216,-3.8304 2.4928,-1.3984 5.624,-1.3984 2.7056,0 5.016,1.1856 z"
       style="font-variant-ligatures:none;fill:#624bfd"
       id="path369915" /><path
       d="m 433.3,445.42 q 0,2.432 -1.0944,4.3776 -1.0944,1.9152 -3.0096,2.9792 -1.8848,1.064 -4.1648,1.064 -2.3104,0 -4.1952,-1.064 -1.8848,-1.064 -2.9792,-2.9792 -1.0944,-1.9456 -1.0944,-4.3776 0,-2.432 1.0944,-4.3472 1.0944,-1.9456 2.9792,-3.0096 1.8848,-1.0944 4.1952,-1.0944 2.28,0 4.1648,1.0944 1.9152,1.064 3.0096,3.0096 1.0944,1.9152 1.0944,4.3472 z m -3.648,0 q 0,-1.4896 -0.6384,-2.6448 -0.608,-1.1856 -1.672,-1.824 -1.0336,-0.6384 -2.3104,-0.6384 -1.2768,0 -2.3408,0.6384 -1.0336,0.6384 -1.672,1.824 -0.608,1.1552 -0.608,2.6448 0,1.4896 0.608,2.6448 0.6384,1.1552 1.672,1.7936 1.064,0.6384 2.3408,0.6384 1.2768,0 2.3104,-0.6384 1.064,-0.6384 1.672,-1.7936 0.6384,-1.1552 0.6384,-2.6448 z"
       style="font-variant-ligatures:none;fill:#624bfd"
       id="path369917" /><path
       d="m 445.01,436.97 q 3.1008,0 4.2864,1.8544 1.1856,1.824 1.1856,5.0768 v 7.7824 q 0,0.7904 -0.5168,1.3376 -0.5168,0.5168 -1.3072,0.5168 -0.7904,0 -1.3072,-0.5168 -0.5168,-0.5472 -0.5168,-1.3376 v -7.7824 q 0,-1.672 -0.6992,-2.6144 -0.6992,-0.9728 -2.4016,-0.9728 -1.7632,0 -2.7664,1.0336 -1.0032,1.0032 -1.0032,2.5536 v 7.7824 q 0,0.7904 -0.5168,1.3376 -0.5168,0.5168 -1.3072,0.5168 -0.7904,0 -1.3072,-0.5168 -0.5168,-0.5472 -0.5168,-1.3376 v -12.555 q 0,-0.7904 0.5168,-1.3072 0.5168,-0.5472 1.3072,-0.5472 0.7904,0 1.3072,0.5472 0.5168,0.5168 0.5168,1.3072 v 0.5168 q 0.8208,-1.0944 2.128,-1.8848 1.3376,-0.7904 2.9184,-0.7904 z"
       style="font-variant-ligatures:none;fill:#624bfd"
       id="path369919" /><path
       d="m 463.12,436.97 q 3.1008,0 4.2864,1.8544 1.1856,1.824 1.1856,5.0768 v 7.7824 q 0,0.7904 -0.5168,1.3376 -0.5168,0.5168 -1.3072,0.5168 -0.7904,0 -1.3072,-0.5168 -0.5168,-0.5472 -0.5168,-1.3376 v -7.7824 q 0,-1.672 -0.6992,-2.6144 -0.6992,-0.9728 -2.4016,-0.9728 -1.7632,0 -2.7664,1.0336 -1.0032,1.0032 -1.0032,2.5536 v 7.7824 q 0,0.7904 -0.5168,1.3376 -0.5168,0.5168 -1.3072,0.5168 -0.7904,0 -1.3072,-0.5168 -0.5168,-0.5472 -0.5168,-1.3376 v -12.555 q 0,-0.7904 0.5168,-1.3072 0.5168,-0.5472 1.3072,-0.5472 0.7904,0 1.3072,0.5472 0.5168,0.5168 0.5168,1.3072 v 0.5168 q 0.8208,-1.0944 2.128,-1.8848 1.3376,-0.7904 2.9184,-0.7904 z"
       style="font-variant-ligatures:none;fill:#624bfd"
       id="path369921" /><path
       d="m 487.13,445.03 q -0.0304,0.7296 -0.5776,1.1856 -0.5472,0.456 -1.2768,0.456 h -10.032 q 0.3648,1.7936 1.672,2.8272 1.3072,1.0032 2.9488,1.0032 1.2464,0 1.9456,-0.2128 0.6992,-0.2432 1.0944,-0.4864 0.4256,-0.2736 0.5776,-0.3648 0.5472,-0.2736 1.0336,-0.2736 0.6384,0 1.0944,0.456 0.456,0.456 0.456,1.064 0,0.8208 -0.8512,1.4896 -0.8512,0.6992 -2.28,1.1856 -1.4288,0.4864 -2.888,0.4864 -2.5536,0 -4.4688,-1.064 -1.8848,-1.064 -2.9184,-2.9184 -1.0336,-1.8848 -1.0336,-4.2256 0,-2.6144 1.0944,-4.5904 1.0944,-1.976 2.888,-3.0096 1.7936,-1.064 3.8304,-1.064 2.0064,0 3.7696,1.0944 1.7936,1.0944 2.8576,2.9488 1.064,1.8544 1.064,4.0128 z m -7.6912,-4.712 q -3.5264,0 -4.1648,3.3136 h 7.9648 v -0.2128 q -0.1216,-1.2768 -1.2464,-2.1888 -1.1248,-0.912 -2.5536,-0.912 z"
       style="font-variant-ligatures:none;fill:#624bfd"
       id="path369923" /><path
       d="m 497.26,436.97 q 2.584,0 4.1648,0.8208 1.5808,0.7904 1.5808,2.128 0,0.6688 -0.3952,1.1856 -0.3952,0.4864 -1.0336,0.4864 -0.4864,0 -0.7904,-0.1216 -0.304,-0.152 -0.608,-0.3648 -0.2736,-0.2432 -0.5472,-0.3952 -0.304,-0.152 -0.912,-0.2736 -0.5776,-0.1216 -0.9424,-0.1216 -2.28,0 -3.5872,1.4288 -1.2768,1.3984 -1.2768,3.6784 0,2.1888 1.3072,3.648 1.3072,1.4288 3.344,1.4288 1.4896,0 2.2192,-0.3648 0.1824,-0.0912 0.4864,-0.304 0.3344,-0.2432 0.608,-0.3648 0.2736,-0.1216 0.6688,-0.1216 0.76,0 1.1856,0.4864 0.456,0.4864 0.456,1.2464 0,0.7296 -0.8512,1.368 -0.8512,0.6384 -2.2496,1.0336 -1.3984,0.3648 -2.9792,0.3648 -2.3408,0 -4.1344,-1.0944 -1.7632,-1.0944 -2.736,-3.0096 -0.9728,-1.9456 -0.9728,-4.3168 0,-2.4624 1.0032,-4.3776 1.0336,-1.9152 2.8576,-2.9792 1.824,-1.0944 4.1344,-1.0944 z"
       style="font-variant-ligatures:none;fill:#624bfd"
       id="path369925" /><path
       d="m 513.69,450.1 q 0.4256,0 0.76,0.4256 0.3648,0.3952 0.3648,1.064 0,0.8208 -0.912,1.3984 -0.8816,0.5472 -2.0064,0.5472 -1.8848,0 -3.192,-0.7904 -1.2768,-0.8208 -1.2768,-3.4352 v -8.3904 h -1.3984 q -0.7296,0 -1.216,-0.4864 -0.4864,-0.4864 -0.4864,-1.216 0,-0.6992 0.4864,-1.1552 0.4864,-0.4864 1.216,-0.4864 h 1.3984 v -1.9456 q 0,-0.7904 0.5168,-1.3072 0.5472,-0.5472 1.3376,-0.5472 0.76,0 1.2768,0.5472 0.5168,0.5168 0.5168,1.3072 v 1.9456 h 2.1584 q 0.7296,0 1.216,0.4864 0.4864,0.4864 0.4864,1.216 0,0.6992 -0.4864,1.1856 -0.4864,0.456 -1.216,0.456 h -2.1584 v 8.2384 q 0,0.6384 0.3344,0.9424 0.3344,0.2736 0.912,0.2736 0.2432,0 0.6688,-0.1216 0.3648,-0.152 0.6992,-0.152 z"
       style="font-variant-ligatures:none;fill:#624bfd"
       id="path369927" /><path
       d="m 521.69,451.68 q 0,0.7904 -0.5168,1.3376 -0.5168,0.5168 -1.3072,0.5168 -0.7904,0 -1.3072,-0.5168 -0.5168,-0.5472 -0.5168,-1.3376 v -12.555 q 0,-0.7904 0.5168,-1.3072 0.5168,-0.5472 1.3072,-0.5472 0.7904,0 1.3072,0.5472 0.5168,0.5168 0.5168,1.3072 z m -1.8544,-16.386 q -1.0336,0 -1.4592,-0.3344 -0.4256,-0.3344 -0.4256,-1.1856 v -0.5776 q 0,-0.8512 0.456,-1.1856 0.456,-0.3344 1.4592,-0.3344 1.064,0 1.4896,0.3344 0.4256,0.3344 0.4256,1.1856 v 0.5776 q 0,0.8816 -0.456,1.216 -0.4256,0.304 -1.4896,0.304 z"
       style="font-variant-ligatures:none;fill:#624bfd"
       id="path369929" /><path
       d="m 537.94,437.3 q 0.7296,0 1.216,0.4864 0.4864,0.456 0.4864,1.1552 0,0.3648 -0.2432,0.912 l -5.6848,12.525 q -0.2128,0.5168 -0.6384,0.8208 -0.3952,0.304 -0.912,0.3344 l -0.2736,0.0304 q -0.5168,0 -0.9728,-0.304 -0.4256,-0.3344 -0.6688,-0.8816 l -5.6544,-12.525 q -0.2128,-0.4864 -0.2128,-0.9728 0,-0.608 0.5168,-1.0944 0.5168,-0.5168 1.2768,-0.5168 0.5776,0 1.064,0.304 0.4864,0.304 0.7296,0.8512 l 4.1952,9.6064 4.1648,-9.576 q 0.2432,-0.5776 0.6688,-0.8816 0.4256,-0.304 0.9424,-0.2736 z"
       style="font-variant-ligatures:none;fill:#624bfd"
       id="path369931" /><path
       d="m 545.98,451.68 q 0,0.7904 -0.5168,1.3376 -0.5168,0.5168 -1.3072,0.5168 -0.7904,0 -1.3072,-0.5168 -0.5168,-0.5472 -0.5168,-1.3376 v -12.555 q 0,-0.7904 0.5168,-1.3072 0.5168,-0.5472 1.3072,-0.5472 0.7904,0 1.3072,0.5472 0.5168,0.5168 0.5168,1.3072 z m -1.8544,-16.386 q -1.0336,0 -1.4592,-0.3344 -0.4256,-0.3344 -0.4256,-1.1856 v -0.5776 q 0,-0.8512 0.456,-1.1856 0.456,-0.3344 1.4592,-0.3344 1.064,0 1.4896,0.3344 0.4256,0.3344 0.4256,1.1856 v 0.5776 q 0,0.8816 -0.456,1.216 -0.4256,0.304 -1.4896,0.304 z"
       style="font-variant-ligatures:none;fill:#624bfd"
       id="path369933" /><path
       d="m 557.57,450.1 q 0.4256,0 0.76,0.4256 0.3648,0.3952 0.3648,1.064 0,0.8208 -0.912,1.3984 -0.8816,0.5472 -2.0064,0.5472 -1.8848,0 -3.192,-0.7904 -1.2768,-0.8208 -1.2768,-3.4352 v -8.3904 h -1.3984 q -0.7296,0 -1.216,-0.4864 -0.4864,-0.4864 -0.4864,-1.216 0,-0.6992 0.4864,-1.1552 0.4864,-0.4864 1.216,-0.4864 h 1.3984 v -1.9456 q 0,-0.7904 0.5168,-1.3072 0.5472,-0.5472 1.3376,-0.5472 0.76,0 1.2768,0.5472 0.5168,0.5168 0.5168,1.3072 v 1.9456 h 2.1584 q 0.7296,0 1.216,0.4864 0.4864,0.4864 0.4864,1.216 0,0.6992 -0.4864,1.1856 -0.4864,0.456 -1.216,0.456 h -2.1584 v 8.2384 q 0,0.6384 0.3344,0.9424 0.3344,0.2736 0.912,0.2736 0.2432,0 0.6688,-0.1216 0.3648,-0.152 0.6992,-0.152 z"
       style="font-variant-ligatures:none;fill:#624bfd"
       id="path369935" /><path
       d="m 574.2,437.27 q 0.7904,0 1.3072,0.5472 0.5168,0.5168 0.5168,1.3072 v 12.92 q 0,3.952 -2.128,5.7456 -2.128,1.824 -5.6848,1.824 -1.0336,0 -2.128,-0.1824 -1.064,-0.152 -1.7328,-0.4256 -1.4896,-0.6384 -1.4896,-1.7632 0,-0.2128 0.0912,-0.4864 0.1824,-0.6688 0.608,-1.0336 0.456,-0.3344 0.9728,-0.3344 0.304,0 0.5776,0.0912 0.2128,0.0912 0.7296,0.304 0.5472,0.2128 1.1248,0.3344 0.608,0.152 1.2464,0.152 2.1584,0 3.1616,-0.9424 1.0336,-0.912 1.0336,-3.1616 v -0.304 q -1.5808,1.976 -4.9248,1.976 -1.5808,0 -2.7968,-0.7296 -1.216,-0.76 -1.8848,-2.0672 -0.6688,-1.3376 -0.6688,-3.04 v -8.8768 q 0,-0.7904 0.5168,-1.3072 0.5168,-0.5472 1.3072,-0.5472 0.7904,0 1.3072,0.5472 0.5168,0.5168 0.5168,1.3072 v 7.7824 q 0,1.9152 0.8208,2.7664 0.8512,0.8208 2.4624,0.8208 1.5808,0 2.432,-0.912 0.8816,-0.9424 0.8816,-2.6752 v -7.7824 q 0,-0.7904 0.5168,-1.3072 0.5168,-0.5472 1.3072,-0.5472 z"
       style="font-variant-ligatures:none;fill:#624bfd"
       id="path369937" /><path
       d="m 592.12,455.48 q 0,0.7904 -0.5472,1.3072 -0.5168,0.5472 -1.3072,0.5472 -0.76,0 -1.2768,-0.5472 -0.5168,-0.5168 -0.5168,-1.3072 v -24.442 q 0,-0.7904 0.5168,-1.3072 0.5472,-0.5472 1.3376,-0.5472 0.76,0 1.2768,0.5472 0.5168,0.5168 0.5168,1.3072 z"
       style="font-variant-ligatures:none;fill:#624bfd"
       id="path369939" /><path
       d="m 616.87,450.04 q 0.7904,0 1.3072,0.5472 0.5472,0.5168 0.5472,1.216 0,0.76 -0.5472,1.2464 -0.5168,0.4864 -1.3072,0.4864 h -10.184 q -0.7904,0 -1.3376,-0.5168 -0.5168,-0.5472 -0.5168,-1.3376 v -17.571 q 0,-0.7904 0.5168,-1.3072 0.5472,-0.5472 1.3376,-0.5472 h 10.184 q 0.7904,0 1.3072,0.5168 0.5472,0.4864 0.5472,1.2768 0,0.76 -0.5168,1.2464 -0.5168,0.456 -1.3376,0.456 h -8.2384 v 5.168 h 6.8704 q 0.7904,0 1.3072,0.5168 0.5472,0.4864 0.5472,1.2768 0,0.76 -0.5168,1.2464 -0.5168,0.456 -1.3376,0.456 h -6.8704 v 5.624 z"
       style="font-variant-ligatures:none;fill:#624bfd"
       id="path369941" /><path
       d="m 640.68,436.97 q 3.0096,0 4.1648,1.8544 1.1552,1.824 1.1552,5.0768 v 7.7824 q 0,0.7904 -0.5168,1.3376 -0.5168,0.5168 -1.3072,0.5168 -0.7904,0 -1.3072,-0.5168 -0.5168,-0.5472 -0.5168,-1.3376 v -7.7824 q 0,-1.672 -0.6688,-2.6144 -0.6384,-0.9728 -2.28,-0.9728 -1.7024,0 -2.6752,1.0336 -0.9424,1.0032 -0.9424,2.5536 v 7.7824 q 0,0.7904 -0.5168,1.3376 -0.5168,0.5168 -1.3072,0.5168 -0.7904,0 -1.3072,-0.5168 -0.5168,-0.5472 -0.5168,-1.3376 v -7.7824 q 0,-1.672 -0.6688,-2.6144 -0.6384,-0.9728 -2.28,-0.9728 -1.7024,0 -2.6752,1.0336 -0.9424,1.0032 -0.9424,2.5536 v 7.7824 q 0,0.7904 -0.5168,1.3376 -0.5168,0.5168 -1.3072,0.5168 -0.7904,0 -1.3072,-0.5168 -0.5168,-0.5472 -0.5168,-1.3376 v -12.555 q 0,-0.7904 0.5168,-1.3072 0.5168,-0.5472 1.3072,-0.5472 0.7904,0 1.3072,0.5472 0.5168,0.5168 0.5168,1.3072 v 0.4864 q 0.8208,-1.0944 2.0672,-1.8544 1.2768,-0.7904 2.8272,-0.7904 3.8304,0 4.8944,3.344 0.6992,-1.2768 2.0976,-2.3104 1.4288,-1.0336 3.2224,-1.0336 z"
       style="font-variant-ligatures:none;fill:#624bfd"
       id="path369943" /><path
       d="m 658.37,436.97 q 2.0976,0 3.8,1.0944 1.7024,1.064 2.6752,2.9792 1.0032,1.9152 1.0032,4.3472 0,2.432 -0.9728,4.3776 -0.9728,1.9152 -2.6752,3.0096 -1.672,1.064 -3.7088,1.064 -1.4592,0 -2.7664,-0.5776 -1.2768,-0.608 -2.128,-1.4592 v 5.9584 q 0,0.7904 -0.5168,1.3072 -0.5168,0.5472 -1.3072,0.5472 -0.7904,0 -1.3072,-0.5168 -0.5168,-0.5168 -0.5168,-1.3376 v -18.635 q 0,-0.7904 0.5168,-1.3072 0.5168,-0.5472 1.3072,-0.5472 0.7904,0 1.3072,0.5472 0.5168,0.5168 0.5168,1.3072 v 0.1216 q 0.7296,-0.912 2.0368,-1.5808 1.3072,-0.6992 2.736,-0.6992 z m -0.456,13.528 q 1.9456,0 3.192,-1.4592 1.2464,-1.4592 1.2464,-3.648 0,-2.1888 -1.2464,-3.6176 -1.216,-1.4592 -3.192,-1.4592 -1.976,0 -3.2224,1.4592 -1.2464,1.4288 -1.2464,3.6176 0,2.1888 1.2464,3.648 1.2464,1.4592 3.2224,1.4592 z"
       style="font-variant-ligatures:none;fill:#624bfd"
       id="path369945" /><path
       d="m 684.52,445.42 q 0,2.432 -1.0944,4.3776 -1.0944,1.9152 -3.0096,2.9792 -1.8848,1.064 -4.1648,1.064 -2.3104,0 -4.1952,-1.064 -1.8848,-1.064 -2.9792,-2.9792 -1.0944,-1.9456 -1.0944,-4.3776 0,-2.432 1.0944,-4.3472 1.0944,-1.9456 2.9792,-3.0096 1.8848,-1.0944 4.1952,-1.0944 2.28,0 4.1648,1.0944 1.9152,1.064 3.0096,3.0096 1.0944,1.9152 1.0944,4.3472 z m -3.648,0 q 0,-1.4896 -0.6384,-2.6448 -0.608,-1.1856 -1.672,-1.824 -1.0336,-0.6384 -2.3104,-0.6384 -1.2768,0 -2.3408,0.6384 -1.0336,0.6384 -1.672,1.824 -0.608,1.1552 -0.608,2.6448 0,1.4896 0.608,2.6448 0.6384,1.1552 1.672,1.7936 1.064,0.6384 2.3408,0.6384 1.2768,0 2.3104,-0.6384 1.064,-0.6384 1.672,-1.7936 0.6384,-1.1552 0.6384,-2.6448 z"
       style="font-variant-ligatures:none;fill:#624bfd"
       id="path369947" /><path
       d="m 706.26,437.27 q 0.7296,0 1.216,0.5472 0.5168,0.5168 0.5168,1.3376 0,0.2736 -0.1216,0.6992 l -4.6512,12.525 q -0.1824,0.5472 -0.6688,0.8816 -0.456,0.304 -1.0032,0.304 l -0.2432,-0.0304 q -1.0336,-0.0608 -1.5504,-1.1552 l -2.584,-7.4784 -2.4624,7.4784 q -0.5168,1.0944 -1.5504,1.1552 l -0.2432,0.0304 q -0.5472,0 -1.0336,-0.304 -0.456,-0.3344 -0.6384,-0.8816 l -4.6512,-12.525 q -0.1216,-0.3344 -0.1216,-0.6992 0,-0.76 0.4864,-1.3072 0.5168,-0.5776 1.3376,-0.5776 0.608,0 1.0336,0.304 0.456,0.2736 0.6384,0.8512 l 3.2832,8.9072 2.4016,-6.5056 q 0.4864,-1.1248 1.672,-1.1248 0.6384,0 0.9728,0.2736 0.3648,0.2736 0.608,0.8512 l 2.3408,6.3536 3.2528,-8.7552 q 0.1824,-0.5776 0.6384,-0.8512 0.456,-0.304 1.1248,-0.304 z"
       style="font-variant-ligatures:none;fill:#624bfd"
       id="path369949" /><path
       d="m 725.46,445.03 q -0.0304,0.7296 -0.5776,1.1856 -0.5472,0.456 -1.2768,0.456 h -10.032 q 0.3648,1.7936 1.672,2.8272 1.3072,1.0032 2.9488,1.0032 1.2464,0 1.9456,-0.2128 0.6992,-0.2432 1.0944,-0.4864 0.4256,-0.2736 0.5776,-0.3648 0.5472,-0.2736 1.0336,-0.2736 0.6384,0 1.0944,0.456 0.456,0.456 0.456,1.064 0,0.8208 -0.8512,1.4896 -0.8512,0.6992 -2.28,1.1856 -1.4288,0.4864 -2.888,0.4864 -2.5536,0 -4.4688,-1.064 -1.8848,-1.064 -2.9184,-2.9184 -1.0336,-1.8848 -1.0336,-4.2256 0,-2.6144 1.0944,-4.5904 1.0944,-1.976 2.888,-3.0096 1.7936,-1.064 3.8304,-1.064 2.0064,0 3.7696,1.0944 1.7936,1.0944 2.8576,2.9488 1.064,1.8544 1.064,4.0128 z m -7.6912,-4.712 q -3.5264,0 -4.1648,3.3136 h 7.9648 v -0.2128 q -0.1216,-1.2768 -1.2464,-2.1888 -1.1248,-0.912 -2.5536,-0.912 z"
       style="font-variant-ligatures:none;fill:#624bfd"
       id="path369951" /><path
       d="m 736.96,436.97 q 0.912,0 1.52,0.5168 0.6384,0.5168 0.6384,1.216 0,0.9424 -0.4864,1.4288 -0.4864,0.456 -1.1552,0.456 -0.456,0 -1.0336,-0.2128 -0.0912,-0.0304 -0.4256,-0.1216 -0.304,-0.0912 -0.6688,-0.0912 -0.7904,0 -1.52,0.4864 -0.7296,0.4864 -1.216,1.4896 -0.456,0.9728 -0.456,2.3408 v 7.2048 q 0,0.7904 -0.5168,1.3376 -0.5168,0.5168 -1.3072,0.5168 -0.7904,0 -1.3072,-0.5168 -0.5168,-0.5472 -0.5168,-1.3376 v -12.555 q 0,-0.7904 0.5168,-1.3072 0.5168,-0.5472 1.3072,-0.5472 0.7904,0 1.3072,0.5472 0.5168,0.5168 0.5168,1.3072 v 0.3952 q 0.6992,-1.2464 2.0064,-1.8848 1.3072,-0.6688 2.7968,-0.6688 z"
       style="font-variant-ligatures:none;fill:#624bfd"
       id="path369953" /><path
       d="m 760.44,436.97 q 3.0096,0 4.1648,1.8544 1.1552,1.824 1.1552,5.0768 v 7.7824 q 0,0.7904 -0.5168,1.3376 -0.5168,0.5168 -1.3072,0.5168 -0.7904,0 -1.3072,-0.5168 -0.5168,-0.5472 -0.5168,-1.3376 v -7.7824 q 0,-1.672 -0.6688,-2.6144 -0.6384,-0.9728 -2.28,-0.9728 -1.7024,0 -2.6752,1.0336 -0.9424,1.0032 -0.9424,2.5536 v 7.7824 q 0,0.7904 -0.5168,1.3376 -0.5168,0.5168 -1.3072,0.5168 -0.7904,0 -1.3072,-0.5168 -0.5168,-0.5472 -0.5168,-1.3376 v -7.7824 q 0,-1.672 -0.6688,-2.6144 -0.6384,-0.9728 -2.28,-0.9728 -1.7024,0 -2.6752,1.0336 -0.9424,1.0032 -0.9424,2.5536 v 7.7824 q 0,0.7904 -0.5168,1.3376 -0.5168,0.5168 -1.3072,0.5168 -0.7904,0 -1.3072,-0.5168 -0.5168,-0.5472 -0.5168,-1.3376 v -12.555 q 0,-0.7904 0.5168,-1.3072 0.5168,-0.5472 1.3072,-0.5472 0.7904,0 1.3072,0.5472 0.5168,0.5168 0.5168,1.3072 v 0.4864 q 0.8208,-1.0944 2.0672,-1.8544 1.2768,-0.7904 2.8272,-0.7904 3.8304,0 4.8944,3.344 0.6992,-1.2768 2.0976,-2.3104 1.4288,-1.0336 3.2224,-1.0336 z"
       style="font-variant-ligatures:none;fill:#624bfd"
       id="path369955" /><path
       d="m 784.3,445.03 q -0.0304,0.7296 -0.5776,1.1856 -0.5472,0.456 -1.2768,0.456 h -10.032 q 0.3648,1.7936 1.672,2.8272 1.3072,1.0032 2.9488,1.0032 1.2464,0 1.9456,-0.2128 0.6992,-0.2432 1.0944,-0.4864 0.4256,-0.2736 0.5776,-0.3648 0.5472,-0.2736 1.0336,-0.2736 0.6384,0 1.0944,0.456 0.456,0.456 0.456,1.064 0,0.8208 -0.8512,1.4896 -0.8512,0.6992 -2.28,1.1856 -1.4288,0.4864 -2.888,0.4864 -2.5536,0 -4.4688,-1.064 -1.8848,-1.064 -2.9184,-2.9184 -1.0336,-1.8848 -1.0336,-4.2256 0,-2.6144 1.0944,-4.5904 1.0944,-1.976 2.888,-3.0096 1.7936,-1.064 3.8304,-1.064 2.0064,0 3.7696,1.0944 1.7936,1.0944 2.8576,2.9488 1.064,1.8544 1.064,4.0128 z m -7.6912,-4.712 q -3.5264,0 -4.1648,3.3136 h 7.9648 v -0.2128 q -0.1216,-1.2768 -1.2464,-2.1888 -1.1248,-0.912 -2.5536,-0.912 z"
       style="font-variant-ligatures:none;fill:#624bfd"
       id="path369957" /><path
       d="m 796.04,436.97 q 3.1008,0 4.2864,1.8544 1.1856,1.824 1.1856,5.0768 v 7.7824 q 0,0.7904 -0.5168,1.3376 -0.5168,0.5168 -1.3072,0.5168 -0.7904,0 -1.3072,-0.5168 -0.5168,-0.5472 -0.5168,-1.3376 v -7.7824 q 0,-1.672 -0.6992,-2.6144 -0.6992,-0.9728 -2.4016,-0.9728 -1.7632,0 -2.7664,1.0336 -1.0032,1.0032 -1.0032,2.5536 v 7.7824 q 0,0.7904 -0.5168,1.3376 -0.5168,0.5168 -1.3072,0.5168 -0.7904,0 -1.3072,-0.5168 -0.5168,-0.5472 -0.5168,-1.3376 v -12.555 q 0,-0.7904 0.5168,-1.3072 0.5168,-0.5472 1.3072,-0.5472 0.7904,0 1.3072,0.5472 0.5168,0.5168 0.5168,1.3072 v 0.5168 q 0.8208,-1.0944 2.128,-1.8848 1.3376,-0.7904 2.9184,-0.7904 z"
       style="font-variant-ligatures:none;fill:#624bfd"
       id="path369959" /><path
       d="m 813.3,450.1 q 0.4256,0 0.76,0.4256 0.3648,0.3952 0.3648,1.064 0,0.8208 -0.912,1.3984 -0.8816,0.5472 -2.0064,0.5472 -1.8848,0 -3.192,-0.7904 -1.2768,-0.8208 -1.2768,-3.4352 v -8.3904 h -1.3984 q -0.7296,0 -1.216,-0.4864 -0.4864,-0.4864 -0.4864,-1.216 0,-0.6992 0.4864,-1.1552 0.4864,-0.4864 1.216,-0.4864 h 1.3984 v -1.9456 q 0,-0.7904 0.5168,-1.3072 0.5472,-0.5472 1.3376,-0.5472 0.76,0 1.2768,0.5472 0.5168,0.5168 0.5168,1.3072 v 1.9456 h 2.1584 q 0.7296,0 1.216,0.4864 0.4864,0.4864 0.4864,1.216 0,0.6992 -0.4864,1.1856 -0.4864,0.456 -1.216,0.456 h -2.1584 v 8.2384 q 0,0.6384 0.3344,0.9424 0.3344,0.2736 0.912,0.2736 0.2432,0 0.6688,-0.1216 0.3648,-0.152 0.6992,-0.152 z"
       style="font-variant-ligatures:none;fill:#624bfd"
       id="path369961" /><path
       d="m 383.11,397.44 c -25.019,0 -33.771,-13.179 -51.171,-39.434 l -1.7503,-2.574 -6.5894,-9.8842 19.768,-29.755 -9.9871,-6.6924 -16.988,25.534 -16.988,-25.534 -9.9871,6.6924 19.768,29.755 -22.033,33.05 9.9871,6.6924 19.254,-28.932 3.8095,5.7658 1.7503,2.574 c 17.812,26.976 29.652,44.685 61.158,44.685 19.254,0 31.918,-11.017 32.432,-11.532 l -7.9279,-8.9575 c -0.10296,0 -9.9871,8.5457 -24.504,8.5457 z"
       style="font-variant-ligatures:normal;fill:#624bfd"
       id="path369964" /><path
       d="m 391.49,373.14 c -13.488,0 -23.269,-10.708 -23.269,-25.431 0,-14.826 9.7812,-25.534 23.269,-25.534 8.0309,0 14.826,3.6036 19.048,10.193 l 10.09,-6.4865 c -6.3835,-9.9871 -16.988,-15.753 -29.138,-15.753 -20.077,0 -35.315,16.165 -35.315,37.58 0,21.313 15.238,37.477 35.315,37.477 12.87,0 23.372,-5.6628 29.652,-15.856 l -10.296,-6.2806 c -4.1184,6.5894 -10.708,10.09 -19.356,10.09 z"
       style="font-variant-ligatures:normal;fill:#7b3ff6"
       id="path369966" /><path
       d="m 462.44,353.99 25.019,-39.125 -10.09,-6.4865 -21.004,32.741 -21.004,-32.741 -10.09,6.4865 25.122,39.125 v 29.447 h 12.046 z"
       style="font-variant-ligatures:normal;fill:#9432ee"
       id="path369968" /><path
       d="m 540.58,363.88 c -0.41184,-1.2355 -0.92664,-2.3681 -1.5444,-3.3977 2.7799,-1.4414 4.9421,-3.1918 6.4865,-4.8391 4.4273,-4.6332 6.8983,-10.914 6.8983,-17.709 0,-17.091 -13.797,-26.255 -26.77,-26.255 h -29.344 v 71.763 h 12.046 v -19.768 h 15.444 c 2.677,0 4.5302,1.4414 5.4569,4.3243 l 0.20592,0.5148 c 3.7066,8.0309 11.943,16.68 24.402,16.68 v -12.046 c -8.1338,0 -12.149,-6.8983 -13.282,-9.2664 z m -32.226,-12.252 v -27.902 h 17.297 c 10.09,0 14.723,7.3102 14.723,14.208 0,3.6036 -1.2355,7.0013 -3.6036,9.3694 -2.677,2.8829 -6.7954,4.3243 -11.84,4.3243 z"
       style="font-variant-ligatures:normal;fill:#ad26e7"
       id="path369970" /><path
       d="m 598.41,373.14 c -13.488,0 -23.269,-10.708 -23.269,-25.431 0,-14.826 9.7812,-25.534 23.269,-25.534 8.0309,0 14.826,3.6036 19.048,10.193 l 10.09,-6.4865 c -6.3835,-9.9871 -16.988,-15.753 -29.138,-15.753 -20.077,0 -35.315,16.165 -35.315,37.58 0,21.313 15.238,37.477 35.315,37.477 12.87,0 23.372,-5.6628 29.652,-15.856 l -10.296,-6.2806 c -4.1184,6.5894 -10.708,10.09 -19.356,10.09 z"
       style="font-variant-ligatures:normal;fill:#c61ae0"
       id="path369972" /><path
       d="m 683.16,371.39 h -32.226 v -59.717 h -12.046 v 71.763 h 44.273 z"
       style="font-variant-ligatures:normal;fill:#df0dd8"
       id="path369974" /><path
       d="m 736.85,311.68 h -44.273 v 71.763 h 44.273 v -12.046 h -32.226 v -18.533 h 23.887 v -12.046 h -23.887 v -17.091 h 32.226 z"
       style="font-variant-ligatures:normal;fill:#f801d1"
       id="path369976" /></g></svg>